<?xml version="1.0"?>
<!--Icons from directory ""-->
<svg xmlns="http://www.w3.org/2000/svg" width="32" height="256" viewBox="0 0 32 256"><svg xmlns:xlink="http://www.w3.org/1999/xlink" id="bike" xml:space="preserve" viewBox="0 0 25.3 15.5" version="1.1" y="0" x="0px" enable-background="new 0 0 25.3 15.5" width="32" height="32"><path d="m16.6 11.2c0 2.4 1.9 4.3 4.3 4.3s4.5-2.1 4.4-4.5c-0.1-2.5-2.3-4.1-4.6-4.1-0.6 0-0.9 0.3-1.2-0.2 0-0.1-0.2-0.3-0.2-0.4 0.2-0.2 0.4-0.4 0.7-0.4 0.7 0 0.7 0.8 1.3 0.7-0.2-0.6-0.4-0.7 0.2-1 0.5-0.2 1.1-0.9 1.1-1.4 0-0.4-0.5-0.9-0.7-1.1-0.3-0.2-0.6-0.1-0.9-0.3-0.2-0.1-0.1-0.3 0-0.4 0.2-0.3 0.1-0.3-0.1-0.5-1.1-1.1-2.5-1.8-4.1-1.9-0.4 0-1.5 0-1.8 0.3s-0.6 0.4-0.6 0.8c0 0.6 0.3 0.6 0.8 0.6 0.8 0 1.6 0.1 2.4 0.4 0.4 0.1 0.4 0.4 0.9 0.5s0.3 0.9 0 1.1c-0.2 0.2-0.8 0.2-1.1 0.1-0.4 0-0.6-0.3-0.9-0.5-0.8-0.3-1.7-0.4-2.6-0.4-1.6 0-2.8 1-3.7 2.3-0.1 0.1-0.3 0.6-0.5 0.6-0.4 0.1-0.7-0.3-1-0.5-1-0.4-2.1-0.9-3.2-0.9-1.4 0-2.9 0.2-4.1 0.9-0.6 0.3-1.2 0.5-1.3 1.2 0 0.2-0.1 0.5 0 0.6 0.1 0.2 0.3 0.4 0.3 0.7 0.3-0.3 0.6-0.5 1-0.7 0.4-0.3 0.3-0.3 0.6 0.1 0.4 0.5 0.4 0.4 0.9 0.1-0.2-0.3-0.4-0.5-0.6-0.7 1.6-0.8 3.4-1 5-0.2-0.2 0.2-0.4 0.4-0.5 0.6-0.2 0.3-0.2 0.3 0 0.7 0.2-0.3 0.3-0.5 0.5-0.8 0.3-0.5 0.3-0.6 0.8-0.2 0.6 0.4 1.2 0.9 1.2 1.6 0 0.4 0 0.8 0.1 1.2 0 0.4-0.2 0.1-0.3 0.4-0.2 0.4-0.1 1.4-0.1 1.8h5.6c0.2 0 0.4-1.7 0.5-2 0.3-0.8 0.7-1.4 1.2-2.1 0.4-0.5 0.7-1 1.5-0.9 0.7 0.1 0.7 0.2 1 0.7-1.3 0.8-2.2 2.3-2.2 3.8v0zm1.6 0c0-0.9 0.6-1.9 1.4-2.3 0.2 0.3 1.1 2.4 1.7 1.9 0.6-0.4-0.7-1.9-0.9-2.3 1.1 0 2.1 0.4 2.7 1.4 0.6 0.9 0.4 2.1-0.3 3-1.4 1.8-4.6 0.8-4.6-1.7v0zm-9.7-0.2c0 0.3 0 0.6-0.1 0.8 0.7-0.4 0.7-2-0.1-2.3 0 0.5 0.2 1 0.2 1.5zm-3.7-0.4c0 0.5-0.2 0.9 0.3 1 0.3 0.1 0.6 0.2 0.9 0.3 0 0.1 0 0.6 0.1 0.7 0.1 0.4-0.7 0.7-1 0.7-0.5 0.1-1.1 0.1-1.6 0-0.9-0.3-1.6-1.2-1.6-2.1-0.3-2.2 2.5-3.6 4.1-2 0.3 0.3 0.2 0.5 0.2 0.9 0 0.1-0.5 0.1-0.6 0.1-0.1 0.1-1.4 0.3-0.8 0.4zm-0.4 4.3c1.8 0 3.6-1.3 3.9-3.1-0.1 0.2-0.8 0.2-0.8 0 0-0.3-0.1-0.7-0.1-1-0.1-0.9-0.3-1.2 0.7-1.2-1-3.1-5.5-3.2-7.2-0.6-1.6 2.6 0.5 5.9 3.5 5.9z" fill="#fff"/></svg><svg xmlns:xlink="http://www.w3.org/1999/xlink" id="electrical" xml:space="preserve" viewBox="0 0 13.5 19" version="1.1" y="32" x="0px" enable-background="new 0 0 13.5 19" width="32" height="32"><g fill="#fff">	<path d="m9.3 15h-5.4c-0.2 0-0.6 0.1-0.6 0.3 0 0.3 0.3 0.3 0.6 0.3h5.4c0.3 0 0.6-0.1 0.6-0.3 0 0-0.3-0.3-0.6-0.3z"/>	<path d="m9.1 16.2h-4.9c-0.4 0.1-0.6 0.2-0.6 0.3s0.1 0.2 0.2 0.3v1.4c0 0.5 0.3 0.8 0.8 0.8h3.9c0.5 0 0.8-0.3 0.8-0.8v-1.4c0.1 0 0.2-0.1 0.2-0.3 0.1 0-0.1-0.3-0.4-0.3z"/>	<path d="m7.1 10.2c-0.1 0-0.2 0.1-0.3 0.1s-0.1 0-0.2-0.1h-0.1l-1.8-1.6v5.7h4v-5.7l-1.6 1.6z"/>	<path d="m13.5 6.9c0.1-3.8-3-6.9-6.8-6.9-3.6 0-6.7 3.1-6.7 6.9 0 2.2 1.1 4.3 2.8 5.6-0.1 0.2-0.2 0.5-0.2 0.7 0 0.6 0.5 1.1 1.1 1.1h0.4v-6.6c0-0.1 0.2-0.2 0.2-0.2h0.5c0.1 0 0.1 0.1 0.1 0.2l1.9 1.9s1.7-1.8 1.8-1.9c0-0.1 0.1-0.2 0.1-0.2h0.5c0.1 0 0.2 0.1 0.2 0.2v6.6h0.3c0.6 0 1.1-0.5 1.1-1.1 0-0.2-0.1-0.5-0.2-0.6 1.6-1.3 2.9-3.3 2.9-5.7z"/></g></svg><svg xmlns:xlink="http://www.w3.org/1999/xlink" id="finance" xml:space="preserve" viewBox="0 0 24.4 16.5" version="1.1" y="64" x="0px" enable-background="new 0 0 24.4 16.5" width="32" height="32">		<path d="m23.1 0h-21.8c-0.7 0-1.3 0.6-1.3 1.3v2h24.4v-2c0-0.7-0.6-1.3-1.3-1.3zm-23.1 15.2c0 0.7 0.6 1.3 1.3 1.3h21.7c0.7 0 1.3-0.6 1.3-1.3v-8.7h-24.3v8.7zm7.1-3.2h7.5v0.4h-7.5v-0.4zm-4.4 0h3.1v0.4h-3.1v-0.4z" fill="#fff"/></svg><svg xmlns:xlink="http://www.w3.org/1999/xlink" id="home" xml:space="preserve" viewBox="0 0 24.2 20.4" version="1.1" y="96" x="0px" enable-background="new 0 0 24.2 20.4" width="32" height="32"><path d="m3.6 10.4l8.8-6.5 8.8 6.2v10.3h-6.8v-6h-4v6h-6.8v-10zm8.8-10.4l-6.1 4.5v-3.2h-3.7v6l-2.6 1.8 1.2 1.6 11.2-8.2 10.6 8.2 1.2-1.6-11.8-9.1z" fill="#fff"/></svg><svg xmlns:xlink="http://www.w3.org/1999/xlink" id="life" xml:space="preserve" viewBox="0 0 14.3 19.1" version="1.1" y="128" x="0px" enable-background="new 0 0 14.3 19.1" width="32" height="32"><path d="m3.5 3.6c0 1.9 1.7 3.6 3.7 3.6s3.7-1.6 3.7-3.6c-0.1-1.9-1.7-3.6-3.8-3.6-2 0-3.6 1.5-3.6 3.6zm-2.1 15.2v-4.4s0.8 0.4 0.8 1.7v3h9.8v-3c0-1.3 0.8-1.7 0.8-1.7v4.4h1.4v-6.6c-1.9-4.4-7.1-4.1-7.1-4.1s-5.1-0.1-7.1 4.2v6.6h1.4zm2.3-4.9s-0.6-2.1 1.4-2.5c1.1-0.1 1.7 0.2 1.9 0.7 0.4-0.4 0.8-0.8 1.9-0.7 2 0.2 1.4 2.5 1.4 2.5s-0.5 1.6-3.3 3.5c-2.6-1.9-3.3-3.5-3.3-3.5z" fill="#fff"/></svg><svg xmlns:xlink="http://www.w3.org/1999/xlink" id="pet" xml:space="preserve" viewBox="0 0 19.1 19.1" version="1.1" y="160" x="0px" enable-background="new 0 0 19.1 19.1" width="32" height="32"><path d="m2.5 4.5c0.4-1.7 1-1.9 2-2.6 1.7-1.2 2.4 0.7 2.4 2.6s-1.1 3.6-2.4 3.6-2.3-1.7-2-3.6zm6-1c0.4-1.7 1.8-2.9 3-3.4 1.9-0.7 2.9 1.1 2.3 3-0.8 2-2.7 4.1-3.9 3.5-1.3-0.6-1.9-1.2-1.4-3.1zm4.3 3.5c0.8-1.9 2.8-2.4 4.1-2.8 2.2-0.5 2.9 1.7 1.7 3.5-0.6 0.8-3.9 3-5.3 2.3-1-0.5-1.2-1.3-0.5-3zm-0.6 6.7c0.7-1.7 2.4-2.2 3.5-2.5 1.8-0.5 2.5 1.6 1.4 3.1-0.5 0.7-3.4 2.8-4.5 2-0.8-0.4-1-1.1-0.4-2.6zm-11.8-3c0.4-0.7 6.1-2 7.8-1.9 0.4 0 2.2 0.1 2.7 3 0.1 0.6 0 5.1-0.4 5.5-0.2 0.5-1.6 1.7-3.1 1.8-1.9 0.1-2.6-3.6-2.6-3.6s-2.3-0.5-4-1.3c-0.9-0.4-1-2-0.4-3.5z" fill="#fff"/></svg><svg xmlns:xlink="http://www.w3.org/1999/xlink" id="travel" xml:space="preserve" viewBox="0 0 19.2 19.1" version="1.1" y="192" x="0px" enable-background="new 0 0 19.2 19.1" width="32" height="32"><path d="m16.5 0.3c0.5-0.5 1.9-0.4 2.3 0.4 0.2 0.4 0.6 1.5 0.2 1.8-1.4 1.5-3.3 3.6-4.8 5.1 0.8 3.3 1.7 6.3 2.5 9.6-0.5 0.6-1.1 1.2-1.7 1.8-1.4-2.8-3.2-5.1-4.6-8-0.9 1.1-1.9 1.6-2.9 2.6-0.1 0.1-0.4 0.4-0.2 0.6 0.2 0.9-0.3 1.8-0.2 2.5-0.5 0.5-0.8 1-1.3 1.3-0.5-1.1-0.5-2.1-1.1-3.1-0.9-0.6-2.4-0.6-3.3-1.1 0.5-0.5 0.8-0.8 1.2-1.3 0.8 0 2.1-0.2 3.1-0.2 1.1-1.2 1.7-2.7 2.7-3.9-2.6-1.6-5.8-2.5-8.4-4.1 0.6-0.6 1.1-1.7 1.7-2.3 3.2 1 6.9 2.3 10.2 3.3 1.2-1.5 3.2-3.5 4.6-5z" fill="#fff"/></svg><svg xmlns:xlink="http://www.w3.org/1999/xlink" id="vehicles" xml:space="preserve" viewBox="0 0 21.7 16.8" version="1.1" y="224" x="0px" enable-background="new 0 0 21.7 16.8" width="32" height="32"><path d="m15.5 8.8c-1.3 0.4-1.7 2.4-0.4 3.1 1.1 0.7 2.8 0 2.8-1.3 0.1-1.1-1.2-2.1-2.4-1.8zm-10.1 0c-1.4 0.3-1.8 2.2-0.8 3 1 1 2.8 0.4 3-1 0.3-1-1-2.3-2.2-2zm-1.1-6.4c-0.6 1.5-1.3 2.8-1.6 4.4 2 0.1 12.9 0.1 16.3 0-0.4-1.4-1-2.6-1.5-4-0.2-0.5-0.4-1.1-0.8-1.5-0.6-0.4-1.3-0.3-1.9-0.3h-8.8c-0.9 0-1.5 0.7-1.7 1.4zm-0.6-0.9c0.5-1 1.7-1.5 2.8-1.5h8.8c1.2 0 2.4 0.6 2.9 1.7 0.7 1.3 1.2 2.8 1.8 4.1 0.5 1 1.3 1.7 1.6 2.8 0.2 1.1 0.2 2.3 0 3.5-0.2 1-1.3 1.4-1.8 2.3-0.1 0.7-0.1 1.4-0.2 2.1-0.4 0.5-2.7 0.5-3.1 0.2-0.4-0.6-0.2-1.9-1.3-1.9-2.1-0.1-7.9-0.1-8.8 0.1-0.6 0.5-0.5 1.3-1.1 1.8-1 0.2-2.2 0.2-3-0.2-0.1-0.8 0.2-1.9-0.5-2.5-0.6-0.7-1.4-1.2-1.6-2.3-0.1-1.4-0.1-3.1 0.8-4.3 1.2-1.8 1.6-4 2.7-5.9z" fill="#fff"/></svg></svg>
