<svg id="Layer_1" xmlns="http://www.w3.org/2000/svg" width="350" height="43" viewBox="0 0 350 43"><style>.st0{fill:url(#SVGID_1_)}.st1{fill:url(#SVGID_2_)}.st2{fill:url(#SVGID_3_)}.st3{fill:url(#SVGID_4_)}.st4{fill:url(#SVGID_5_)}.st5{fill:url(#SVGID_6_)}.st6{fill:url(#SVGID_7_)}.st7{fill:url(#SVGID_8_)}.st8{fill:url(#SVGID_9_)}.st9{fill:#fff}.st10{fill:url(#SVGID_10_)}.st11{fill:url(#SVGID_11_)}.st12{fill:url(#SVGID_12_)}.st13{fill:url(#SVGID_13_)}.st14{fill:url(#SVGID_14_)}.st15{fill:url(#SVGID_15_)}</style><linearGradient id="SVGID_1_" gradientUnits="userSpaceOnUse" x1="25.25" y1="31.102" x2="25.25" y2="40.702"><stop offset="0" stop-opacity=".5"/><stop offset="1" stop-opacity="0"/></linearGradient><path class="st0" d="M47.5 34.9l2.3-.1-1.7-2.2H44s-.1-1.1 2.1-1.1v-3.7H4.6v3.7c2 0 1.7 1.1 1.7 1.1H2.2L.5 34.8l2.3.1S0 39.2 0 39.9c0 2.6 5.3 3 7.1 3 2 .1 6.3.1 9.3 0 1.9 0 4.6-.2 4.6-.2l-.2-4.7c-.7.1-2.9.2-4.5.2s-3.8-.6-3.8-.6c0-.3-.2-1.2 0-1.6.2-.3 1.4-.6 1.4-.6h7.4v-2.3h-5.6c-3.5 0-3.9-1-3.9-1.6h27c0 .6-.5 1.6-4 1.6h-5.6v2.4h7.4s1.1.2 1.4.6c.2.3 0 1.2 0 1.6 0 0-2.2.6-3.8.6-1.6 0-3.8-.1-4.5-.2l-.2 4.7s1.5.2 4.6.2h9.3c1.8 0 7.1-.3 7.1-3-.2-.9-3-5.1-3-5.1z"/><radialGradient id="SVGID_2_" cx="653.1" cy="3560.82" r="8.435" gradientTransform="matrix(1 0 0 .3026 -615.68 -1051.643)" gradientUnits="userSpaceOnUse"><stop offset=".4" stop-color="#8c8c8c"/><stop offset="1" stop-color="#FFF"/></radialGradient><path class="st1" d="M35.3 23.8c1 1.9 2.2 2.7 2.2 2.7l-9.9.01V23.8h7.7z"/><linearGradient id="SVGID_3_" gradientUnits="userSpaceOnUse" x1="657.426" y1="1118.275" x2="660.526" y2="1121.476" gradientTransform="translate(-615.68 -1095.898)"><stop offset="0" stop-color="#8c8c8c"/><stop offset="1" stop-color="#FFF"/></linearGradient><path class="st2" d="M41.5 20.8c0-.1.6 2.8 4 3.8l.6 2.8c-4.3-1.4-4.6-5.7-4.6-6.6z"/><radialGradient id="SVGID_4_" cx="658.606" cy="2442.037" r="3.619" gradientTransform="matrix(1 0 0 .4422 -615.68 -1066.508)" gradientUnits="userSpaceOnUse"><stop offset=".4" stop-color="#a6a6a6"/><stop offset="1" stop-color="#FFF"/></radialGradient><path class="st3" d="M43.4 12.2H46l.6 2.4h-3.8c.1-.1.4-1.1.6-2.4z"/><linearGradient id="SVGID_5_" gradientUnits="userSpaceOnUse" x1="651.486" y1="1105.475" x2="650.646" y2="1108.1" gradientTransform="translate(-615.68 -1095.898)"><stop offset="0" stop-color="#8c8c8c"/><stop offset=".8" stop-color="#8c8c8c"/></linearGradient><path class="st4" d="M35.914 11.74c-.3 1.7-1.014 2.86-1.014 2.86l-.3-2.4s.987-3.632 1.187-5.333l.478.096c-.007 1.212-.05 2.977-.35 4.777z"/><radialGradient id="SVGID_6_" cx="650" cy="3064.585" r="6.1" gradientTransform="matrix(1 0 0 .3508 -615.68 -1061.687)" gradientUnits="userSpaceOnUse"><stop offset=".4" stop-color="#8c8c8c"/><stop offset="1" stop-color="#FFF"/></radialGradient><path class="st5" d="M34.6 12.2l.3 2.4h-7.3v-2.4z"/><linearGradient id="SVGID_7_" gradientUnits="userSpaceOnUse" x1="643.101" y1="1100.199" x2="659.3" y2="1100.199" gradientTransform="translate(-615.68 -1095.898)"><stop offset=".2" stop-color="#FFF"/><stop offset="1" stop-color="#bfbfbf"/></linearGradient><path class="st6" d="M27.5 2.1V.6S30 0 32.7 0s5.9.5 8 2.1c2 1.6 2.4 3.4 3 6.5L27.5 2.1z"/><linearGradient id="SVGID_8_" gradientUnits="userSpaceOnUse" x1="652.731" y1="1104.3" x2="652.731" y2="1123.3" gradientTransform="translate(-615.68 -1095.898)"><stop offset="0" stop-color="#1f4199"/><stop offset="1" stop-color="#2e3281"/></linearGradient><path class="st7" d="M27.6 2.1s1.6-.6 5.2-.6c3.5 0 5.9.7 7.6 1.7 1.6 1 3.4 3 3.4 6.4 0 2.2-.8 5-.8 5h3.6l-.1 4.2h-4.8s-.1 1.1-.1 1.9c0 .9.3 5.2 4.6 6.6l-.1 4.2s-3.6-.6-6.2-2.2c-.1.1-2.7 1.3-4.6 1.6 0 0-2.8.7-7.7.6v-5h9.8s-3.5-2.5-3.5-7.9l-6.3.1v-4.1h7.3s.6-2.2.8-3.3c.2-1 .3-3 .3-4.1 0 0-1.4-.6-3.3-.6-1.8 0-4.4.3-5.2.6V2.1h.1z"/><radialGradient id="SVGID_9_" cx="-934.001" cy="3560.794" r="8.4" gradientTransform="matrix(-1 0 0 .3026 -920.68 -1051.643)" gradientUnits="userSpaceOnUse"><stop offset=".4" stop-color="#8c8c8c"/><stop offset="1" stop-color="#FFF"/></radialGradient><path class="st8" d="M15.6 23.8c-1 1.9-2.3 2.7-2.3 2.7h9.8v-2.7h-7.5z"/><linearGradient id="SVGID_10_" gradientUnits="userSpaceOnUse" x1="-823.625" y1="1118.225" x2="-820.425" y2="1121.425" gradientTransform="matrix(-1 0 0 1 -814.68 -1095.898)"><stop offset="0" stop-color="#8c8c8c"/><stop offset="1" stop-color="#FFF"/></linearGradient><path class="st10" d="M9.1 20.8c0-.1-.6 2.8-4.1 3.8l-.6 2.8c4.5-1.4 4.7-5.7 4.7-6.6z"/><radialGradient id="SVGID_11_" cx="-646.483" cy="2442.137" r="3.552" gradientTransform="matrix(-1 0 0 .4422 -638.68 -1066.508)" gradientUnits="userSpaceOnUse"><stop offset=".4" stop-color="#a6a6a6"/><stop offset="1" stop-color="#FFF"/></radialGradient><path class="st11" d="M7.1 12.2H4.7l-.6 2.4h3.6l-.6-2.4z"/><linearGradient id="SVGID_12_" gradientUnits="userSpaceOnUse" x1="-845.834" y1="1105.583" x2="-846.656" y2="1108.152" gradientTransform="matrix(-1 0 0 1 -830.68 -1095.898)"><stop offset="0" stop-color="#8c8c8c"/><stop offset=".8" stop-color="#8c8c8c"/></linearGradient><path class="st12" d="M15.08 11.56c.2 1 .92 3.04.92 3.04l.3-2.4s-1.054-3.494-1.254-5.194l-.32.144c.048 1.042.152 3.31.353 4.41z"/><radialGradient id="SVGID_13_" cx="-847.2" cy="3078.329" r="6.1" gradientTransform="matrix(-1 0 0 .3492 -830.68 -1061.602)" gradientUnits="userSpaceOnUse"><stop offset=".4" stop-color="#8c8c8c"/><stop offset="1" stop-color="#FFF"/></radialGradient><path class="st13" d="M16.3 12.2l-.3 2.4h7.2v-2.4z"/><linearGradient id="SVGID_14_" gradientUnits="userSpaceOnUse" x1="622.753" y1="1100.199" x2="638.999" y2="1100.199" gradientTransform="translate(-615.68 -1095.898)"><stop offset="0" stop-color="#d9d9d9"/><stop offset=".8" stop-color="#FFF"/></linearGradient><path class="st14" d="M23.2 2.1V.6S20.6 0 17.9 0c-2.7 0-5.9.5-8 2.1-2 1.6-2.248 3.4-2.848 6.5L23.2 2.1z"/><linearGradient id="SVGID_15_" gradientUnits="userSpaceOnUse" x1="629.33" y1="1104.6" x2="629.33" y2="1123.6" gradientTransform="translate(-615.68 -1095.898)"><stop offset="0" stop-color="#93ce4e"/><stop offset="1" stop-color="#72a13d"/></linearGradient><path class="st15" d="M23 2.1s-1.7-.6-5.3-.6c-3.5 0-5.9.7-7.5 1.7-1.6 1-3.4 3-3.4 6.4 0 2.2.8 5 .8 5H4.1l.1 4.2H9s.1 1.1.1 1.9c0 .9-.3 5.2-4.6 6.6l.1 4.2s3.6-.6 6.2-2.2c.1.1 2.7 1.3 4.6 1.6 0 0 2.8.7 7.7.6v-5h-9.6S17 24 17 18.6l6.2.1v-4.1H16s-.6-2.2-.8-3.3c-.2-1-.3-3-.3-4.1 0 0 1.4-.6 3.2-.6 1.9 0 4.3.3 5.1.6V2.1H23z"/><path class="st9" d="M341.3 9.4h1.1v4.1h1V9.4h1.1v-.7h-3.1zm8.2-.7h-1.2l-1 3.3-1-3.3H345c-.2 1.6-.3 3.2-.3 4.8h.9c0-1.3.1-2.5.2-3.6l1.1 3.6h.8l1.1-3.6c.1 1 .2 2.3.2 3.6h1c-.2-1.6-.3-3.2-.5-4.8zM152 8.4c-4.3 0-7 2.9-7 8.4 0 5.7 2.7 7.7 6.7 7.7 2.3 0 4.5-.6 6.4-1.6l-.6-2.3c-1.8.6-3.6.9-5 .9-2.2 0-3.4-1.2-3.4-4v-.2h9.1c.4-6.7-2.3-8.9-6.2-8.9zm-2.9 6.4c.1-2.2 1-3.7 2.8-3.7 1.6 0 2.4 1.2 2.4 3.7h-5.2zM72.9 8.4c-4.6 0-7.4 2.6-7.4 8.3 0 5.6 2.5 7.8 6.8 7.8 4.6 0 7.4-2.7 7.4-8.3 0-5.6-2.4-7.8-6.8-7.8zm-.3 13.2c-2 0-3.1-1.1-3.1-5.5 0-3.5 1.3-4.8 3.1-4.8 1.9 0 3.1 1.1 3.1 5.5 0 3.5-1.3 4.8-3.1 4.8zm93 .9c-1.5 0-1.8-.7-1.8-2.8v-9h4.1V8.9h-4.1V6h-1.9c-.1 1-.3 2-.5 2.9h-2.5v1.8h2.5v9.6c0 3 .9 4.1 3.5 4.1 1 0 2.2-.3 3.4-.9L168 22c-1.1.4-1.8.5-2.4.5zm-104.7-1c-1.8 0-2.8-1.5-2.8-5.2 0-3.2 1.1-4.9 2.9-4.9 1 0 1.9.4 2.6 1l1.4-2c-1-1.3-2.6-2-4.6-2-3.9 0-6.4 3.4-6.4 8.2 0 5.2 2.1 7.8 6.1 7.8 2.3 0 4-1 5.2-2.2l-1.2-2c-.9.9-1.9 1.3-3.2 1.3zm66.4-13.1c-2.3 0-4.4.6-6.2 1.4l.5 2.4c1.4-.5 3.1-.9 4.7-.9 2 0 2.9.8 2.9 2.3v1.2h-1c-5.4 0-7.9 2.1-7.9 5.3 0 2.9 1.7 4.4 4.8 4.4 2 0 3.4-.8 4.7-1.9l.3 1.6h3v-11c0-2.9-1.9-4.8-5.8-4.8zm1.9 11.9c-1 .8-2 1.3-2.9 1.3-1.4 0-2.1-.8-2.1-2 0-1.4.9-2.4 3.8-2.4h1.2v3.1zM113.8 8.4c-1.5 0-3 .8-4.3 1.9l-.3-1.6H106v18.4h4v-2.7c.5.1 1.2.1 1.6.1 4.4 0 7.7-2.6 7.7-8.7 0-4-1.8-7.4-5.5-7.4zm-2 13.3c-.7 0-1.3-.1-1.8-.3v-8.6c1-.9 2-1.3 2.7-1.3 1.6 0 2.5 1.7 2.5 4.9 0 3.6-1.4 5.3-3.4 5.3zM98.6 8.4c-1.8 0-3.4.9-4.9 2.2-.6-1.3-1.8-2.2-3.7-2.2-1.7 0-3.3.8-4.5 2l-.3-1.6h-3.3v15.4h4V12.9c1-.8 2-1.3 2.8-1.3 1.3 0 2 .9 2 4.5v8h3.9v-8.9c0-1.1-.1-1.8-.2-2.3 1-.8 2.1-1.4 2.9-1.4 1.3 0 2 .8 2 4.5 0 1.8-.1 4.9-.1 8h3.9c0-3.4.1-6.9.1-8.8 0-4.8-1.6-6.8-4.6-6.8zm41 2.8l-.3-2.4H136v15.4h4v-9.8c1.4-1.7 2.1-2.3 3-2.3.3 0 .7 0 1.4.2l.5-3.5c-.5-.2-1-.3-1.5-.3-1.2 0-2.2.6-3.8 2.7zm149.3 10c-1.3 0-1.6.3-1.6 1.6 0 1.2.3 1.6 1.6 1.6s1.6-.3 1.6-1.6c-.1-1.3-.4-1.6-1.6-1.6zm-6.8.3c-1 0-1.4-.5-1.4-2.1v-7.9h3.4V8.7h-3.4V5.9h-3.2c-.2 1-.4 1.9-.6 2.8h-2.1v2.8h1.9v8.9c0 2.9 1.1 4 3.9 4 1.2 0 2.4-.3 3.9-1l-.3-2.3c-1 .4-1.6.4-2.1.4zm16.5 1c-2.5 0-3.7-2-3.7-6.1 0-3.7 1.4-5.8 3.7-5.8 1.2 0 2.2.4 3.1 1.3l1-1.3c-1-1.2-2.5-1.9-4.4-1.9-3.5 0-5.898 3.1-5.898 8.1 0 5.1 2.1 7.6 5.7 7.6 2.2 0 3.7-.9 4.9-2.2l-.9-1.3C301 22 299.9 22.5 298.6 22.5zM268 8.4c-4.3 0-7 2.9-7 8.4 0 5.6 2.7 7.6 6.7 7.6 2.3 0 4.5-.6 6.4-1.6l-.6-2.3c-1.8.6-3.6.9-5 .9-2.2 0-3.4-1.2-3.4-4v-.2h9.1c.3-6.6-2.3-8.8-6.2-8.8zm-2.9 6.4c.1-2.2 1-3.7 2.8-3.7 1.6 0 2.4 1.2 2.4 3.7h-5.2zm45.7-6.1c-4.1 0-6.8 2.6-6.8 8.1 0 5.3 2.3 7.6 6.1 7.6 4.1 0 6.8-2.5 6.8-8.1 0-5.3-2.3-7.6-6.1-7.6zm-.3 13.9c-2.7 0-4-1.7-4-6.4 0-3.8 1.5-5.6 3.9-5.6 2.6 0 4 1.7 4 6.4 0 3.8-1.6 5.6-3.9 5.6zm25.2-13.9c-1.9 0-3.6 1.1-5.2 2.4-.5-1.3-1.7-2.4-3.6-2.4-1.8 0-3.4 1-4.7 2.1L322 9h-2v15.2h2.4V12.5c1.3-1.1 2.6-1.8 3.6-1.8 1.7 0 2.7 1.5 2.7 5.4v8.1h2.4v-8.8c0-1.4-.1-2.1-.2-2.7 1.3-1.1 2.8-2 3.9-2 1.7 0 2.7 1.4 2.7 5.4 0 2.1-.1 5.4-.1 8.1h2.398c0-3 .1-6.7.1-8.7.102-5-1.598-6.8-4.198-6.8zM191.9 22.5c-2.7 0-4.2-1.5-4.2-5.3v-.3h9.1c.4-5.9-1.7-8.2-5.3-8.2-3.9 0-6.2 3-6.2 8.3 0 5.4 2.5 7.4 6.1 7.4 2.1 0 4-.6 5.5-1.4l-.5-1.5c-1.6.6-3.1 1-4.5 1zm-.6-12.1c2.2 0 3.2 1.7 3.2 4.8h-6.8c.2-2.7 1.3-4.8 3.6-4.8zm25.1-2c-1.8 0-3.4.9-4.9 2.2-.6-1.3-1.8-2.2-3.7-2.2-1.8 0-3.3.8-4.5 2l-.3-1.6h-3.3v15.4h4V12.9c1-.8 2-1.3 2.8-1.3 1.3 0 2 .9 2 4.5v8h3.9v-8.9c0-1.1-.1-1.8-.2-2.3 1-.8 2.1-1.4 2.9-1.4 1.3 0 2 .8 2 4.5 0 1.8-.1 4.9-.1 8h3.9c0-3.4.1-6.9.1-8.8 0-4.8-1.6-6.8-4.6-6.8zm-38.7.3c-1.8 0-3.3.9-4.6 1.9V6h-2.4v18.2h2.4V12.5c1.3-1.2 2.7-1.8 3.7-1.8 1.9 0 2.9 1.4 2.9 5.4 0 1.9-.1 5.2-.1 8.1h2.4c0-3.2.1-6.9.1-8.7.1-5.1-1.6-6.8-4.4-6.8zm64.4 2.5l-.3-2.4h-3.3v15.4h4v-9.8c1.4-1.7 2.1-2.3 3-2.3.3 0 .7 0 1.4.2l.5-3.5c-.5-.2-1-.3-1.5-.3-1.2 0-2.2.6-3.8 2.7zm-12.3-2.8c-2.3 0-4.4.6-6.2 1.4l.5 2.4c1.4-.5 3.1-.9 4.7-.9 2 0 2.9.8 2.9 2.3v1.2h-1c-5.4 0-7.9 2.1-7.9 5.3 0 2.9 1.7 4.4 4.8 4.4 2 0 3.4-.8 4.7-1.9l.3 1.6h3v-11c0-2.9-1.9-4.8-5.8-4.8zm1.9 11.9c-1 .8-2 1.3-2.9 1.3-1.4 0-2.1-.8-2.1-2 0-1.4.9-2.4 3.8-2.4h1.2v3.1z"/><path class="st9" d="M261 8.8h-4.5l-3.7 6.2h-.1V6h-4v18.2h4v-7.6h.1l4.1 7.6h4.6l-5.1-8.9z"/></svg>