<svg xmlns="http://www.w3.org/2000/svg" viewBox="0 0 25.3 15.5"><path fill="#FFF" d="M16.6 11.2c0 2.4 1.9 4.3 4.3 4.3s4.5-2.1 4.4-4.5c-.1-2.5-2.3-4.1-4.6-4.1-.6 0-.9.3-1.2-.2 0-.1-.2-.3-.2-.4.2-.2.4-.4.7-.4.7 0 .7.8 1.3.7-.2-.6-.4-.7.2-1 .5-.2 1.1-.9 1.1-1.4 0-.4-.5-.9-.7-1.1-.3-.2-.6-.1-.9-.3-.2-.1-.1-.3 0-.4.2-.3.1-.3-.1-.5C19.8.8 18.4.1 16.8 0c-.4 0-1.5 0-1.8.3-.3.3-.6.4-.6.8 0 .6.3.6.8.6.8 0 1.6.1 2.4.4.4.1.4.4.9.5.5.1.3.9 0 1.1-.2.2-.8.2-1.1.1-.4 0-.6-.3-.9-.5-.8-.3-1.7-.4-2.6-.4-1.6 0-2.8 1-3.7 2.3-.1.1-.3.6-.5.6-.4.1-.7-.3-1-.5-1-.4-2.1-.9-3.2-.9-1.4 0-2.9.2-4.1.9-.6.3-1.2.5-1.3 1.2 0 .2-.1.5 0 .6.1.2.3.4.3.7.3-.3.6-.5 1-.7.4-.3.3-.3.6.1.4.5.4.4.9.1-.2-.3-.4-.5-.6-.7 1.6-.8 3.4-1 5-.2-.2.2-.4.4-.5.6-.2.3-.2.3 0 .7.2-.3.3-.5.5-.8.3-.5.3-.6.8-.2.6.4 1.2.9 1.2 1.6 0 .4 0 .8.1 1.2 0 .4-.2.1-.3.4-.2.4-.1 1.4-.1 1.8h5.6c.2 0 .4-1.7.5-2 .3-.8.7-1.4 1.2-2.1.4-.5.7-1 1.5-.9.7.1.7.2 1 .7-1.3.8-2.2 2.3-2.2 3.8 0 2.4 0-1.5 0 0zm1.6 0c0-.9.6-1.9 1.4-2.3.2.3 1.1 2.4 1.7 1.9.6-.4-.7-1.9-.9-2.3 1.1 0 2.1.4 2.7 1.4.6.9.4 2.1-.3 3-1.4 1.8-4.6.8-4.6-1.7 0-.9 0 1.6 0 0zM8.5 11c0 .3 0 .6-.1.8.7-.4.7-2-.1-2.3 0 .5.2 1 .2 1.5zm-3.7-.4c0 .5-.2.9.3 1l.9.3c0 .1 0 .6.1.7.1.4-.7.7-1 .7-.5.1-1.1.1-1.6 0-.9-.3-1.6-1.2-1.6-2.1C1.6 9 4.4 7.6 6 9.2c.3.3.2.5.2.9 0 .1-.5.1-.6.1-.1.1-1.4.3-.8.4zm-.4 4.3c1.8 0 3.6-1.3 3.9-3.1-.1.2-.8.2-.8 0 0-.3-.1-.7-.1-1-.1-.9-.3-1.2.7-1.2C7.1 6.5 2.6 6.4.9 9c-1.6 2.6.5 5.9 3.5 5.9z"/></svg>