<svg xmlns="http://www.w3.org/2000/svg" viewBox="0 0 13.5 19"><g fill="#FFF"><path d="M9.3 15H3.9c-.2 0-.6.1-.6.3 0 .3.3.3.6.3h5.4c.3 0 .6-.1.6-.3 0 0-.3-.3-.6-.3zm-.2 1.2H4.2c-.4.1-.6.2-.6.3 0 .1.1.2.2.3v1.4c0 .5.3.8.8.8h3.9c.5 0 .8-.3.8-.8v-1.4c.1 0 .2-.1.2-.3.1 0-.1-.3-.4-.3zm-2-6c-.1 0-.2.1-.3.1-.1 0-.1 0-.2-.1h-.1L4.7 8.6v5.7h4V8.6l-1.6 1.6z"/><path d="M13.5 6.9c.1-3.8-3-6.9-6.8-6.9C3.1 0 0 3.1 0 6.9c0 2.2 1.1 4.3 2.8 5.6-.1.2-.2.5-.2.7 0 .6.5 1.1 1.1 1.1h.4V7.7c0-.1.2-.2.2-.2h.5c.1 0 .1.1.1.2l1.9 1.9s1.7-1.8 1.8-1.9c0-.1.1-.2.1-.2h.5c.1 0 .2.1.2.2v6.6h.3c.6 0 1.1-.5 1.1-1.1 0-.2-.1-.5-.2-.6 1.6-1.3 2.9-3.3 2.9-5.7z"/></g></svg>