<svg xmlns="http://www.w3.org/2000/svg" viewBox="0 0 19.1 19.1"><path fill="#FFF" d="M2.5 4.5c.4-1.7 1-1.9 2-2.6 1.7-1.2 2.4.7 2.4 2.6 0 1.9-1.1 3.6-2.4 3.6-1.3 0-2.3-1.7-2-3.6zm6-1c.4-1.7 1.8-2.9 3-3.4 1.9-.7 2.9 1.1 2.3 3-.8 2-2.7 4.1-3.9 3.5C8.6 6 8 5.4 8.5 3.5zM12.8 7c.8-1.9 2.8-2.4 4.1-2.8 2.2-.5 2.9 1.7 1.7 3.5-.6.8-3.9 3-5.3 2.3-1-.5-1.2-1.3-.5-3zm-.6 6.7c.7-1.7 2.4-2.2 3.5-2.5 1.8-.5 2.5 1.6 1.4 3.1-.5.7-3.4 2.8-4.5 2-.8-.4-1-1.1-.4-2.6zm-11.8-3c.4-.7 6.1-2 7.8-1.9.4 0 2.2.1 2.7 3 .1.6 0 5.1-.4 5.5-.2.5-1.6 1.7-3.1 1.8-1.9.1-2.6-3.6-2.6-3.6s-2.3-.5-4-1.3c-.9-.4-1-2-.4-3.5z"/></svg>