<svg xmlns="http://www.w3.org/2000/svg" viewBox="0 0 21.7 16.8"><path fill="#FFF" d="M15.5 8.8c-1.3.4-1.7 2.4-.4 3.1 1.1.7 2.8 0 2.8-1.3.1-1.1-1.2-2.1-2.4-1.8zm-10.1 0c-1.4.3-1.8 2.2-.8 3 1 1 2.8.4 3-1 .3-1-1-2.3-2.2-2zM4.3 2.4C3.7 3.9 3 5.2 2.7 6.8c2 .1 12.9.1 16.3 0-.4-1.4-1-2.6-1.5-4-.2-.5-.4-1.1-.8-1.5-.6-.4-1.3-.3-1.9-.3H6c-.9 0-1.5.7-1.7 1.4zm-.6-.9C4.2.5 5.4 0 6.5 0h8.8c1.2 0 2.4.6 2.9 1.7.7 1.3 1.2 2.8 1.8 4.1.5 1 1.3 1.7 1.6 2.8.2 1.1.2 2.3 0 3.5-.2 1-1.3 1.4-1.8 2.3-.1.7-.1 1.4-.2 2.1-.4.5-2.7.5-3.1.2-.4-.6-.2-1.9-1.3-1.9-2.1-.1-7.9-.1-8.8.1-.6.5-.5 1.3-1.1 1.8-1 .2-2.2.2-3-.2-.1-.8.2-1.9-.5-2.5-.6-.7-1.4-1.2-1.6-2.3-.1-1.4-.1-3.1.8-4.3 1.2-1.8 1.6-4 2.7-5.9z"/></svg>